<?xml version="1.0" encoding="UTF-8"?>
<svg width="16px" height="16px" viewBox="0 0 16 16" xmlns="http://www.w3.org/2000/svg">
 <filter id="a" x="0%" y="0%" width="100%" height="100%">
  <feColorMatrix in="SourceGraphic" values="0 0 0 0 1 0 0 0 0 1 0 0 0 0 1 0 0 0 1 0"/>
 </filter>
 <mask id="b">
  <g filter="url(#a)">
   <path d="m0 0h16v16h-16z" fill-opacity=".3"/>
  </g>
 </mask>
 <clipPath id="c">
  <path d="m0 0h1600v1200h-1600z"/>
 </clipPath>
 <mask id="d">
  <g filter="url(#a)">
   <path d="m0 0h16v16h-16z" fill-opacity=".05"/>
  </g>
 </mask>
 <clipPath id="e">
  <path d="m0 0h1600v1200h-1600z"/>
 </clipPath>
 <mask id="f">
  <g filter="url(#a)">
   <path d="m0 0h16v16h-16z" fill-opacity=".05"/>
  </g>
 </mask>
 <clipPath id="g">
  <path d="m0 0h1600v1200h-1600z"/>
 </clipPath>
 <mask id="h">
  <g filter="url(#a)">
   <path d="m0 0h16v16h-16z" fill-opacity=".05"/>
  </g>
 </mask>
 <clipPath id="i">
  <path d="m0 0h1600v1200h-1600z"/>
 </clipPath>
 <mask id="j">
  <g filter="url(#a)">
   <path d="m0 0h16v16h-16z" fill-opacity=".05"/>
  </g>
 </mask>
 <clipPath id="k">
  <path d="m0 0h1600v1200h-1600z"/>
 </clipPath>
 <mask id="l">
  <g filter="url(#a)">
   <path d="m0 0h16v16h-16z" fill-opacity=".05"/>
  </g>
 </mask>
 <clipPath id="m">
  <path d="m0 0h1600v1200h-1600z"/>
 </clipPath>
 <mask id="n">
  <g filter="url(#a)">
   <path d="m0 0h16v16h-16z" fill-opacity=".05"/>
  </g>
 </mask>
 <clipPath id="o">
  <path d="m0 0h1600v1200h-1600z"/>
 </clipPath>
 <mask id="p">
  <g filter="url(#a)">
   <path d="m0 0h16v16h-16z" fill-opacity=".3"/>
  </g>
 </mask>
 <clipPath id="q">
  <path d="m0 0h1600v1200h-1600z"/>
 </clipPath>
 <mask id="r">
  <g filter="url(#a)">
   <path d="m0 0h16v16h-16z" fill-opacity=".5"/>
  </g>
 </mask>
 <clipPath id="s">
  <path d="m0 0h1600v1200h-1600z"/>
 </clipPath>
 <g transform="translate(-540 -222)" clip-path="url(#c)" mask="url(#b)">
  <path d="m562.46 212.06h10.449c-1.1836 0.49219-1.2969 2.4609 0 3h-10.449z" fill="#2e3436"/>
 </g>
 <path d="m7.5 1.0195c-0.55078 0-0.99609 0.44531-0.99609 0.99609v0.45312c-0.47266 0.12891-0.92969 0.32031-1.3555 0.56641l-0.32422-0.32422c-0.39062-0.39063-1.0195-0.39063-1.4102 0l-0.70312 0.70703c-0.39063 0.39062-0.39063 1.0195 0 1.4102l0.32031 0.32031c-0.24609 0.42578-0.43359 0.88281-0.5625 1.3555h-0.45312c-0.55078 0-0.99609 0.44531-0.99609 0.99609v1c0 0.55078 0.44531 0.99609 0.99609 0.99609h0.44922c0.13281 0.47266 0.32031 0.92969 0.56641 1.3555l-0.32031 0.32031c-0.39063 0.39062-0.39063 1.0195 0 1.4102l0.70312 0.70703c0.39063 0.39063 1.0195 0.39063 1.4102 0l0.32031-0.32031c0.42969 0.24219 0.88281 0.43359 1.3594 0.55859v0.45703c0 0.55078 0.44531 0.99609 0.99609 0.99609h0.99609c0.55469 0 1-0.44531 1-0.99609v-0.45312c0.47266-0.12891 0.92969-0.32031 1.3555-0.56641l0.32031 0.32422c0.39062 0.39063 1.0195 0.39063 1.4102 0l0.70703-0.70703c0.39063-0.39062 0.39063-1.0195 0-1.4102l-0.32031-0.32031c0.24219-0.42578 0.43359-0.88281 0.55859-1.3555h0.45312c0.55469 0 1-0.44531 1-0.99609v-1c0-0.55078-0.44531-0.99609-1-0.99609h-0.44922c-0.12891-0.47266-0.32031-0.92969-0.56641-1.3555l0.32422-0.32031c0.39063-0.39062 0.39063-1.0195 0-1.4102l-0.70703-0.70703c-0.39062-0.39063-1.0195-0.39063-1.4102 0l-0.32031 0.32031c-0.42578-0.24219-0.88281-0.42969-1.3555-0.55859v-0.45703c0-0.55078-0.44531-0.99609-1-0.99609zm0.51562 3.9766c1.6602 0 3 1.3438 3 3s-1.3398 3-3 3c-1.6562 0-3-1.3438-3-3s1.3438-3 3-3z" fill="#2e3436"/>
 <g transform="translate(-540 -222)" clip-path="url(#e)" mask="url(#d)">
  <path d="m16 748h1v1h-1z" fill="#2e3436" fill-rule="evenodd"/>
 </g>
 <g transform="translate(-540 -222)" clip-path="url(#g)" mask="url(#f)">
  <path d="m17 747h1v1h-1z" fill="#2e3436" fill-rule="evenodd"/>
 </g>
 <g transform="translate(-540 -222)" clip-path="url(#i)" mask="url(#h)">
  <path d="m18 750h1v1h-1z" fill="#2e3436" fill-rule="evenodd"/>
 </g>
 <g transform="translate(-540 -222)" clip-path="url(#k)" mask="url(#j)">
  <path d="m16 750h1v1h-1z" fill="#2e3436" fill-rule="evenodd"/>
 </g>
 <g transform="translate(-540 -222)" clip-path="url(#m)" mask="url(#l)">
  <path d="m17 751h1v1h-1z" fill="#2e3436" fill-rule="evenodd"/>
 </g>
 <g transform="translate(-540 -222)" clip-path="url(#o)" mask="url(#n)">
  <path d="m19 751h1v1h-1z" fill="#2e3436" fill-rule="evenodd"/>
 </g>
 <g transform="translate(-540 -222)" clip-path="url(#q)" mask="url(#p)">
  <path d="m136 776v7h7v-7z" fill="#2e3436"/>
 </g>
 <g transform="translate(-540 -222)" clip-path="url(#s)" mask="url(#r)">
  <path d="m219 758h3v12h-3z" fill="#2e3436"/>
 </g>
</svg>
