<?xml version="1.0" encoding="utf-8"?>
<svg viewBox="0 0 202.5 108" xmlns="http://www.w3.org/2000/svg" xmlns:bx="https://boxy-svg.com">
  <defs>
    <style bx:fonts="Noto Sans Mono">@import url(https://fonts.googleapis.com/css2?family=Noto+Sans+Mono%3Aital%2Cwght%400%2C100%3B0%2C200%3B0%2C300%3B0%2C400%3B0%2C500%3B0%2C600%3B0%2C700%3B0%2C800%3B0%2C900&amp;display=swap);</style>
  </defs>
  <g transform="matrix(1, 0, 0, 1, 0, -243)">
    <g class="  keycap">
      <rect x="1" y="244" width="119.5" height="52" rx="5" fill="#cccccc" class="outer border" style="stroke: rgb(0, 0, 0); stroke-width: 2px;"/>
      <rect x="1" y="244" width="119.5" height="52" rx="5" fill="#cccccc"/>
      <rect x="7" y="247" width="107.5" height="40" rx="5" fill="#fcfcfc" class="inner border" style="stroke: rgba(0, 0, 0, 0.1); stroke-width: 2px;"/>
      <rect x="7" y="247" width="107.5" height="40" rx="5" fill="#fcfcfc"/>
    </g>
    <text style="fill: rgb(51, 51, 51); font-family: &quot;Noto Sans Mono&quot;; font-size: 11.3px; white-space: pre;" x="10" y="260.039">SHIFT</text>
    <g class="  keycap">
      <rect x="122.5" y="244" width="52" height="52" rx="5" fill="#cccccc" class="outer border" style="stroke: rgb(0, 0, 0); stroke-width: 2px;"/>
      <rect x="122.5" y="244" width="52" height="52" rx="5" fill="#cccccc"/>
      <rect x="128.5" y="247" width="40" height="40" rx="5" fill="#fcfcfc" class="inner border" style="stroke: rgba(0, 0, 0, 0.1); stroke-width: 2px;"/>
      <rect x="128.5" y="247" width="40" height="40" rx="5" fill="#fcfcfc"/>
    </g>
    <text style="fill: rgb(51, 51, 51); font-family: &quot;Noto Sans Mono&quot;; font-size: 11.3px; white-space: pre;" x="132.5" y="260.039">Z</text>
    <g class="  keycap">
      <rect x="1" y="298" width="65.5" height="52" rx="5" fill="#cccccc" class="outer border" style="stroke: rgb(0, 0, 0); stroke-width: 2px;"/>
      <rect x="1" y="298" width="65.5" height="52" rx="5" fill="#cccccc"/>
      <rect x="7" y="301" width="53.5" height="40" rx="5" fill="#fcfcfc" class="inner border" style="stroke: rgba(0, 0, 0, 0.1); stroke-width: 2px;"/>
      <rect x="7" y="301" width="53.5" height="40" rx="5" fill="#fcfcfc"/>
    </g>
    <text style="fill: rgb(51, 51, 51); font-family: &quot;Noto Sans Mono&quot;; font-size: 11.3px; white-space: pre;" x="10" y="315.039">CTRL</text>
    <g class="  keycap">
      <rect x="68.5" y="298" width="65.5" height="52" rx="5" fill="#ec94ff" class="outer border" style="stroke: rgb(0, 0, 0); stroke-width: 2px;"/>
      <rect x="68.5" y="298" width="65.5" height="52" rx="5" fill="#ec94ff"/>
      <rect x="74.5" y="301" width="53.5" height="40" rx="5" fill="#ffbeff" class="inner border" style="stroke: rgba(0, 0, 0, 0.1); stroke-width: 2px;"/>
      <rect x="74.5" y="301" width="53.5" height="40" rx="5" fill="#ffbeff"/>
    </g>
    <text style="fill: rgb(51, 51, 51); font-family: &quot;Noto Sans Mono&quot;; font-size: 11.3px; white-space: pre;" transform="matrix(1, 0, 0, 1, -141.705994, -62.085052)"><tspan x="220.206" y="377.124">⊞</tspan><tspan x="220.206" dy="1em">​</tspan></text>
    <g class="  keycap">
      <rect x="136" y="298" width="65.5" height="52" rx="5" fill="#cccccc" class="outer border" style="stroke: rgb(0, 0, 0); stroke-width: 2px;"/>
      <rect x="136" y="298" width="65.5" height="52" rx="5" fill="#cccccc"/>
      <rect x="142" y="301" width="53.5" height="40" rx="5" fill="#fcfcfc" class="inner border" style="stroke: rgba(0, 0, 0, 0.1); stroke-width: 2px;"/>
      <rect x="142" y="301" width="53.5" height="40" rx="5" fill="#fcfcfc"/>
    </g>
    <text style="fill: rgb(51, 51, 51); font-family: &quot;Noto Sans Mono&quot;; font-size: 11.3px; white-space: pre;" x="146" y="315.039">ALT</text>
  </g>
</svg>