<svg width="162" height="24" viewBox="0 0 162 24" fill="none" xmlns="http://www.w3.org/2000/svg">
<path d="M6.33861 3.99014L10.5142 11.4028L5.86804 19.9848H8.8599L11.9551 14.1282L15.2513 19.9848H18.306L9.38549 3.989L6.33861 3.99014Z" fill="white"/>
<path fill-rule="evenodd" clip-rule="evenodd" d="M0 0H24V24H0V0ZM2.12036 21.8809H21.8796V2.11336H2.12036V21.8809Z" fill="white"/>
<path fill-rule="evenodd" clip-rule="evenodd" d="M98.4096 3.6H94.7915V9.51615H94.7436C94.2212 8.70384 93.1022 8.20272 91.6741 8.20272C88.8898 8.20272 86.4386 10.4703 86.4625 14.4095C86.4625 18.0374 88.6753 20.4 91.4368 20.4C92.9356 20.4 94.3398 19.7318 95.0766 18.4196H95.1245L95.2911 20.1357H98.4096V3.6ZM94.7436 12.7597C94.7714 12.9733 94.7874 13.1884 94.7915 13.4038V14.9323C94.7976 15.2137 94.7658 15.4947 94.6968 15.7675C94.4824 16.7938 93.6497 17.51 92.6026 17.51C91.1026 17.51 90.1274 16.2686 90.1274 14.2871C90.1274 12.4496 90.984 10.9692 92.6265 10.9692C93.7444 10.9692 94.5303 11.7815 94.7436 12.7597Z" fill="white"/>
<path d="M34.0409 17.0798H40.4183V20.1357H30.4V4.04734H34.0409V17.0798Z" fill="white"/>
<path d="M67.4822 8.197C66.7061 8.17863 65.94 8.37666 65.2694 8.76906C64.6811 9.13394 64.1712 9.61272 63.7694 10.1774H63.7227C63.2231 8.96012 62.0323 8.19586 60.5289 8.19586C58.5293 8.19586 57.5062 9.2942 57.0066 10.0344H56.9359L56.7693 8.459H53.8242V20.1288H57.3454V13.3363C57.3345 13.0275 57.3829 12.7195 57.4879 12.429C57.7024 11.8318 58.2499 11.1156 59.1784 11.1156C60.319 11.1156 60.8437 12.119 60.8437 13.5983V20.1391H64.366V13.3089C64.3653 12.9929 64.4134 12.6787 64.5086 12.3776C64.747 11.6854 65.3424 11.1122 66.1751 11.1122C67.3408 11.1122 67.886 12.0915 67.886 13.7859V20.1357H71.4083V13.2608C71.4095 9.77586 69.719 8.20043 67.4822 8.20043V8.197Z" fill="white"/>
<path fill-rule="evenodd" clip-rule="evenodd" d="M110.4 13.2356V20.1346H107.281L107.067 18.9653H106.995C106.231 19.8966 105.037 20.3977 103.651 20.3977C101.287 20.3977 99.8776 18.6816 99.8776 16.8167C99.8776 13.7848 102.957 12.8947 106.733 12.8947V12.1853C106.733 11.5652 106.399 10.6808 104.607 10.6808C103.661 10.6932 102.729 10.9041 101.869 11.2998L100.714 9.22555C101.526 8.76791 103.126 8.19586 105.251 8.19586C109.145 8.19815 110.4 10.4898 110.4 13.2356ZM106.851 15.0399C104.845 15.0399 103.231 15.1749 103.223 16.6554C103.223 17.5889 104.081 17.8429 104.893 17.8429C105.307 17.8459 105.712 17.7186 106.051 17.4789C106.389 17.2393 106.645 16.8992 106.781 16.5066C106.829 16.3031 106.852 16.0945 106.851 15.8854V15.0399Z" fill="white"/>
<path fill-rule="evenodd" clip-rule="evenodd" d="M79.8046 20.3783C82.4349 20.3783 85.0652 18.2834 85.0652 14.0857H85.0698C85.0937 10.5092 83.0737 8.19586 80.3259 8.19586C78.729 8.19586 77.5347 8.83999 76.8503 9.84108H76.8036V3.6H73.2379V20.1163H76.1648L76.3051 18.4951H76.353C77.1743 19.8771 78.4666 20.3783 79.8046 20.3783ZM78.9617 10.9863C80.6293 10.9863 81.4277 12.4165 81.4277 14.2287C81.4277 16.3281 80.4901 17.5203 78.9617 17.518C77.9282 17.518 77.1001 16.7801 76.872 15.8019C76.8222 15.5909 76.7984 15.3745 76.8013 15.1577V13.4416C76.7998 13.2173 76.8235 12.9935 76.872 12.7746C77.1058 11.7254 77.999 10.9863 78.9617 10.9863Z" fill="white"/>
<path fill-rule="evenodd" clip-rule="evenodd" d="M52.2501 13.2356V20.1346H49.1316L48.9194 18.9653H48.8476C48.0834 19.8966 46.8891 20.3977 45.5044 20.3977C43.1398 20.3977 41.7311 18.6816 41.7311 16.8167C41.7311 13.7848 44.8109 12.8947 48.5852 12.8947V12.1853C48.5852 11.5652 48.251 10.6808 46.4602 10.6808C45.5147 10.6934 44.5822 10.9042 43.7227 11.2998L42.5638 9.22555C43.3759 8.76791 44.9763 8.19586 47.1024 8.19586C50.9954 8.19815 52.2501 10.4898 52.2501 13.2356ZM48.7027 15.0399C46.6963 15.0399 45.0823 15.1749 45.0732 16.6554C45.08 17.5889 45.9321 17.8429 46.7431 17.8429C47.1575 17.8459 47.5624 17.7186 47.901 17.4789C48.2396 17.2393 48.4948 16.8992 48.6309 16.5066C48.6797 16.3032 48.7039 16.0946 48.7027 15.8854V15.0399Z" fill="white"/>
<path d="M118.53 14.4999C118.53 15.2052 118.622 15.8569 118.806 16.4549C118.99 17.0376 119.251 17.5436 119.588 17.9729C119.925 18.4022 120.332 18.7396 120.807 18.9849C121.282 19.2149 121.804 19.3299 122.371 19.3299C123.506 19.3299 124.564 18.8239 125.545 17.8119V11.1649C124.564 10.1836 123.506 9.69289 122.371 9.69289C121.804 9.69289 121.282 9.81556 120.807 10.0609C120.332 10.2909 119.925 10.6206 119.588 11.0499C119.251 11.4639 118.99 11.9699 118.806 12.5679C118.622 13.1506 118.53 13.7946 118.53 14.4999ZM126.971 20.2499H125.545V19.1459C124.533 20.0659 123.414 20.5259 122.187 20.5259C121.42 20.5259 120.723 20.3802 120.094 20.0889C119.465 19.7822 118.921 19.3682 118.461 18.8469C118.016 18.3102 117.664 17.6739 117.403 16.9379C117.158 16.2019 117.035 15.3892 117.035 14.4999C117.035 13.6106 117.158 12.7979 117.403 12.0619C117.664 11.3259 118.016 10.6972 118.461 10.1759C118.921 9.63922 119.465 9.22522 120.094 8.93389C120.723 8.62722 121.42 8.47389 122.187 8.47389C122.8 8.47389 123.391 8.58889 123.958 8.81889C124.525 9.04889 125.054 9.38622 125.545 9.83089V3.71289H126.971V20.2499Z" fill="white"/>
<path d="M129.905 14.4999C129.905 13.6106 130.035 12.7979 130.296 12.0619C130.572 11.3259 130.948 10.6972 131.423 10.1759C131.898 9.63922 132.466 9.22522 133.125 8.93389C133.8 8.62722 134.536 8.47389 135.333 8.47389C136.115 8.47389 136.836 8.62722 137.495 8.93389C138.154 9.22522 138.722 9.63922 139.197 10.1759C139.672 10.6972 140.04 11.3259 140.301 12.0619C140.577 12.7979 140.715 13.6106 140.715 14.4999C140.715 15.3892 140.577 16.2019 140.301 16.9379C140.04 17.6739 139.672 18.3102 139.197 18.8469C138.722 19.3682 138.154 19.7822 137.495 20.0889C136.836 20.3802 136.115 20.5259 135.333 20.5259C134.536 20.5259 133.8 20.3802 133.125 20.0889C132.466 19.7822 131.898 19.3682 131.423 18.8469C130.948 18.3102 130.572 17.6739 130.296 16.9379C130.035 16.2019 129.905 15.3892 129.905 14.4999ZM131.4 14.4999C131.4 15.2206 131.492 15.8799 131.676 16.4779C131.875 17.0606 132.144 17.5666 132.481 17.9959C132.834 18.4099 133.248 18.7396 133.723 18.9849C134.214 19.2149 134.75 19.3299 135.333 19.3299C135.9 19.3299 136.422 19.2149 136.897 18.9849C137.388 18.7396 137.802 18.4099 138.139 17.9959C138.492 17.5666 138.76 17.0606 138.944 16.4779C139.143 15.8799 139.243 15.2206 139.243 14.4999C139.243 13.7946 139.143 13.1429 138.944 12.5449C138.76 11.9469 138.492 11.4409 138.139 11.0269C137.802 10.5976 137.388 10.2679 136.897 10.0379C136.422 9.79256 135.9 9.66989 135.333 9.66989C134.75 9.66989 134.214 9.79256 133.723 10.0379C133.248 10.2679 132.834 10.5976 132.481 11.0269C132.144 11.4409 131.875 11.9469 131.676 12.5449C131.492 13.1429 131.4 13.7946 131.4 14.4999Z" fill="white"/>
<path d="M142.775 14.4999C142.775 13.6106 142.913 12.7979 143.189 12.0619C143.465 11.3259 143.848 10.6972 144.339 10.1759C144.83 9.63922 145.412 9.22522 146.087 8.93389C146.762 8.62722 147.505 8.47389 148.318 8.47389C149.437 8.47389 150.511 8.74222 151.538 9.27889V10.6589C151.032 10.3216 150.518 10.0762 149.997 9.92289C149.476 9.75422 148.97 9.66989 148.479 9.66989C147.866 9.66989 147.298 9.79256 146.777 10.0379C146.271 10.2679 145.826 10.5976 145.443 11.0269C145.075 11.4409 144.784 11.9469 144.569 12.5449C144.37 13.1429 144.27 13.7946 144.27 14.4999C144.27 15.2052 144.37 15.8569 144.569 16.4549C144.784 17.0376 145.075 17.5436 145.443 17.9729C145.826 18.4022 146.271 18.7396 146.777 18.9849C147.298 19.2149 147.866 19.3299 148.479 19.3299C148.97 19.3299 149.476 19.2532 149.997 19.0999C150.518 18.9312 151.032 18.6782 151.538 18.3409V19.7209C150.511 20.2576 149.437 20.5259 148.318 20.5259C147.505 20.5259 146.762 20.3802 146.087 20.0889C145.412 19.7822 144.83 19.3682 144.339 18.8469C143.848 18.3102 143.465 17.6739 143.189 16.9379C142.913 16.1866 142.775 15.3739 142.775 14.4999Z" fill="white"/>
<path d="M153.923 18.2719C154.965 18.9926 156.023 19.3529 157.097 19.3529C157.863 19.3529 158.492 19.1612 158.983 18.7779C159.489 18.3946 159.742 17.8886 159.742 17.2599C159.742 16.7692 159.588 16.3859 159.282 16.1099C158.99 15.8186 158.622 15.5809 158.178 15.3969C157.733 15.1976 157.25 15.0212 156.729 14.8679C156.207 14.6992 155.724 14.4922 155.28 14.2469C154.835 14.0016 154.459 13.6796 154.153 13.2809C153.861 12.8822 153.716 12.3532 153.716 11.6939C153.716 11.2186 153.808 10.7816 153.992 10.3829C154.191 9.98422 154.459 9.64689 154.797 9.37089C155.149 9.07956 155.563 8.85722 156.039 8.70389C156.514 8.55056 157.035 8.47389 157.603 8.47389C158.599 8.47389 159.604 8.69622 160.616 9.14089V10.5439C159.65 9.94589 158.684 9.64689 157.718 9.64689C156.966 9.64689 156.345 9.83089 155.855 10.1989C155.379 10.5669 155.142 11.0499 155.142 11.6479C155.142 12.1232 155.287 12.4989 155.579 12.7749C155.885 13.0509 156.261 13.2809 156.706 13.4649C157.15 13.6489 157.633 13.8252 158.155 13.9939C158.676 14.1472 159.159 14.3542 159.604 14.6149C160.048 14.8602 160.416 15.1899 160.708 15.6039C161.014 16.0026 161.168 16.5392 161.168 17.2139C161.168 17.7046 161.068 18.1569 160.869 18.5709C160.685 18.9696 160.416 19.3146 160.064 19.6059C159.711 19.8972 159.289 20.1196 158.799 20.2729C158.308 20.4416 157.771 20.5259 157.189 20.5259C156.115 20.5259 155.027 20.2576 153.923 19.7209V18.2719Z" fill="white"/>
</svg>
